<?xml version="1.0" standalone="no"?>
<!DOCTYPE svg PUBLIC "-//W3C//DTD SVG 20010904//EN"
 "http://www.w3.org/TR/2001/REC-SVG-20010904/DTD/svg10.dtd">
<svg version="1.0" xmlns="http://www.w3.org/2000/svg"
 width="872.000000pt" height="872.000000pt" viewBox="0 0 872.000000 872.000000"
 preserveAspectRatio="xMidYMid meet">
<metadata>
Created by potrace 1.11, written by Peter Selinger 2001-2013
</metadata>
<g transform="translate(0.000000,872.000000) scale(0.100000,-0.100000)"
fill="#000000" stroke="none">
<path d="M2001 8302 c1 -33 -1 -64 -5 -70 -3 -6 -2 -13 4 -17 6 -4 8 -10 5
-15 -4 -7 -6 -55 -4 -142 0 -49 0 -247 -1 -277 0 -19 -3 -38 -6 -43 -3 -4 0
-8 6 -8 6 0 8 -4 5 -10 -3 -5 -6 -36 -5 -67 1 -76 1 -70 1 -203 0 -63 0 -122
0 -130 1 -34 0 -178 -2 -215 -1 -22 -1 -47 0 -55 0 -8 0 -42 0 -75 0 -33 0
-64 0 -70 0 -5 0 -62 0 -125 0 -63 0 -123 0 -132 1 -10 1 -25 1 -33 1 -29 1
-240 0 -274 0 -19 -3 -38 -6 -43 -3 -4 0 -8 6 -8 6 0 8 -4 5 -10 -3 -5 -6 -36
-5 -67 0 -32 1 -66 1 -75 0 -289 0 -308 -7 -320 -3 -4 0 -8 6 -8 6 0 8 -4 5
-10 -3 -5 -6 -36 -5 -67 1 -76 1 -70 1 -203 0 -63 0 -122 0 -130 1 -34 0 -178
-2 -215 -1 -22 -1 -47 0 -55 0 -8 0 -42 0 -75 0 -33 0 -64 0 -70 0 -5 0 -62 0
-125 0 -63 0 -123 0 -132 1 -10 1 -25 1 -33 1 -8 0 -63 0 -123 -1 -59 -1 -112
0 -117 2 -6 2 -29 1 -52 l-1 -42 -711 -1 c-391 0 -715 -3 -720 -6 -5 -3 -9 -1
-9 4 0 5 -10 7 -22 5 -45 -8 -298 -8 -298 0 0 5 -4 6 -9 2 -6 -3 -60 -6 -120
-6 l-111 0 0 -2000 0 -1999 2000 0 1999 0 3 63 c2 34 1 90 -2 125 -3 35 -4 65
-2 67 4 4 5 281 1 301 -1 5 -1 14 0 19 1 6 1 53 1 105 -1 52 -1 106 0 120 5
106 4 270 -2 270 -3 0 -4 8 -2 18 8 34 9 192 1 192 -5 0 -5 5 -2 10 4 6 6 66
6 133 -1 67 -1 158 0 202 1 44 0 87 0 95 -1 8 -1 26 -1 40 5 157 4 270 -2 270
-3 0 -4 8 -2 18 8 34 9 192 1 192 -5 0 -5 5 -2 10 4 6 6 66 6 133 -1 67 -1
158 0 202 1 44 1 86 0 93 -1 6 -1 20 -1 30 -1 36 -1 237 -1 247 0 6 0 123 1
260 0 138 0 286 1 330 0 44 0 87 0 95 -1 8 -1 26 -1 40 5 157 4 270 -2 270 -3
0 -4 8 -2 18 8 33 9 202 1 202 -5 0 -5 5 -1 11 8 13 7 196 -1 209 -3 6 -3 10
2 10 4 0 7 78 5 173 -1 94 -2 208 -1 252 0 44 0 87 0 95 -1 8 -1 26 -1 40 5
157 4 270 -2 270 -3 0 -4 8 -2 18 8 33 9 202 1 202 -5 0 -5 5 -2 10 4 6 6 135
6 288 -1 152 -1 313 0 357 0 44 0 87 0 95 -1 8 -1 26 -1 40 5 157 4 270 -2
270 -3 0 -4 8 -2 18 8 33 9 202 1 202 -5 0 -5 5 -1 11 8 13 7 196 -1 209 -3 6
-3 10 2 10 4 0 7 78 5 173 -1 94 -2 208 -1 252 0 44 0 87 0 95 -1 8 -1 26 -1
40 4 146 4 270 0 270 -3 0 -3 28 0 63 3 34 4 81 2 105 l-3 42 -1000 0 -1000 0
2 -58z"/>
<path d="M4720 8318 c1 -24 1 -47 0 -53 -1 -5 -1 -77 0 -160 2 -214 2 -232 0
-313 -1 -40 0 -75 3 -78 3 -3 1 -19 -3 -35 -5 -17 -5 -31 1 -35 5 -3 7 -9 4
-15 -5 -7 -6 -75 -4 -354 0 -27 0 -83 -1 -123 -1 -40 0 -75 3 -78 3 -3 1 -19
-3 -35 -5 -17 -5 -31 1 -35 5 -3 7 -9 4 -15 -5 -7 -6 -75 -4 -354 0 -27 0 -83
-1 -123 -1 -40 0 -75 3 -78 3 -3 1 -19 -3 -35 -5 -17 -5 -31 1 -35 5 -3 7 -9
4 -15 -5 -7 -6 -75 -4 -354 0 -27 0 -83 -1 -123 -1 -40 0 -75 3 -78 3 -3 1
-19 -3 -35 -5 -17 -5 -31 1 -35 5 -3 7 -9 4 -15 -5 -7 -6 -75 -4 -354 0 -27 0
-83 -1 -123 -1 -40 0 -75 3 -78 3 -3 1 -19 -3 -35 -5 -17 -5 -31 1 -35 5 -3 7
-9 4 -15 -3 -5 -6 -77 -5 -161 1 -84 0 -193 -1 -243 -1 -105 -1 -115 1 -175 1
-37 2 -341 1 -415 0 -11 0 -56 0 -100 0 -44 0 -87 0 -95 0 -8 0 -73 0 -145 0
-71 0 -137 0 -145 0 -8 0 -80 0 -160 0 -80 0 -149 0 -155 -3 -242 -1 -456 4
-465 3 -5 3 -10 -2 -10 -4 0 -7 -24 -6 -52 2 -44 3 -111 2 -170 0 -7 0 -44 0
-83 0 -38 0 -79 -1 -90 0 -11 0 -51 1 -90 1 -38 1 -156 0 -262 0 -106 2 -197
6 -203 3 -5 3 -10 -2 -10 -4 0 -7 -21 -6 -47 1 -27 2 -66 3 -88 1 -30 2 -277
1 -350 -3 -242 -1 -456 4 -465 3 -5 3 -10 -2 -10 -4 0 -7 -24 -6 -52 2 -44 3
-111 2 -170 0 -7 0 -44 0 -83 1 -38 0 -77 0 -85 -1 -8 -1 -41 -1 -72 l2 -58
2000 0 2000 0 0 2000 0 2001 -240 -3 c-132 -2 -240 0 -240 3 0 3 -10 4 -22 2
-45 -8 -298 -8 -298 0 0 5 -4 6 -10 2 -8 -5 -978 -7 -1135 -2 -43 1 -59 6 -57
15 1 7 2 77 2 155 -1 188 0 229 6 238 2 4 1 10 -3 12 -5 3 -6 44 -3 92 3 48 2
88 -1 90 -3 2 -2 29 1 59 3 31 4 56 1 56 -7 0 -4 207 3 226 3 7 1 16 -5 19 -5
4 -7 10 -4 15 6 9 7 228 3 353 -2 37 -1 67 2 67 5 0 4 29 -2 218 -2 39 1 72 5
72 5 0 6 4 2 9 -3 5 -5 40 -5 78 1 37 0 84 0 103 -1 19 -2 63 -3 98 -1 34 0
62 3 62 5 0 4 29 -2 218 -2 39 1 72 5 72 5 0 5 5 2 10 -8 13 -9 196 -1 209 4
5 2 12 -4 16 -6 4 -8 10 -5 15 3 5 5 73 5 152 -1 189 0 230 6 239 2 4 1 10 -3
12 -5 3 -6 44 -3 92 3 48 2 88 -1 90 -3 2 -2 29 1 59 3 31 4 56 1 56 -4 0 -5
30 -4 68 1 37 2 111 2 165 0 53 0 105 0 115 0 9 0 60 0 112 0 52 0 106 1 120
1 14 2 31 1 38 0 6 -1 32 -1 57 l-2 45 -1000 0 -1000 0 2 -42z"/>
</g>
</svg>
